<svg width="58" height="58" viewBox="0 0 58 58" fill="none" xmlns="http://www.w3.org/2000/svg">
<path d="M0 50.5214C0 54.6521 3.34837 58 7.4786 58H50.5212C54.6521 58 58 54.6516 58 50.5214V7.47883C58 3.34791 54.6516 0 50.5214 0H7.47883C3.34791 0 0 3.34837 0 7.4786V50.5214Z" fill="#563D7C"/>
<path d="M24.0514 25.6555V17.4419H31.2813C31.97 17.4419 32.6338 17.4992 33.2732 17.6141C33.9126 17.7287 34.4783 17.9336 34.9701 18.2288C35.4618 18.524 35.8553 18.9338 36.1505 19.4583C36.4455 19.983 36.5932 20.6553 36.5932 21.4747C36.5932 22.9503 36.1505 24.0161 35.2651 24.6718C34.38 25.3277 33.2487 25.6555 31.8715 25.6555H24.0514ZM16.3295 11.4414V46.5586H33.3471C34.921 46.5586 36.4539 46.3619 37.9458 45.9684C39.4377 45.5749 40.7656 44.9684 41.9297 44.1487C43.0935 43.3289 44.02 42.2714 44.7085 40.9763C45.3972 39.6811 45.7414 38.1481 45.7414 36.3776C45.7414 34.1806 45.2085 32.3035 44.143 30.7461C43.0772 29.1885 41.4623 28.0983 39.2982 27.4752C40.8721 26.7212 42.0609 25.7538 42.8643 24.5734C43.6674 23.393 44.0691 21.9177 44.0691 20.1468C44.0691 18.5074 43.7986 17.1304 43.2576 16.0155C42.7165 14.9008 41.9542 14.0072 40.9704 13.335C39.9869 12.6628 38.8065 12.1791 37.4293 11.8841C36.0522 11.5889 34.5274 11.4414 32.8552 11.4414H16.3295ZM24.0514 40.5581V30.9181H32.4617C34.1339 30.9181 35.4783 31.3032 36.4949 32.074C37.5113 32.8445 38.0197 34.1314 38.0197 35.9348C38.0197 36.8531 37.8638 37.6071 37.5523 38.1973C37.2408 38.7875 36.8228 39.2549 36.298 39.599C35.7735 39.9434 35.1668 40.1892 34.4783 40.337C33.7895 40.4842 33.0684 40.5581 32.3142 40.5581H24.0514Z" fill="white"/>
</svg>
