<svg width="52" height="58" viewBox="0 0 52 58" fill="none" xmlns="http://www.w3.org/2000/svg">
<path d="M51.4688 17.052C51.4684 16.0768 51.2603 15.215 50.8396 14.4754C50.4264 13.7481 49.8075 13.1385 48.9774 12.6566C42.1251 8.69525 35.2662 4.74604 28.4162 0.780671C26.5694 -0.288256 24.7789 -0.249286 22.9458 0.834986C20.2184 2.44766 6.56326 10.2914 2.4942 12.6544C0.818444 13.627 0.00302083 15.1155 0.00261806 17.0502C0 25.0167 0.00261806 32.9829 0 40.9496C0.000402778 41.9035 0.199576 42.7485 0.60175 43.477C1.0152 44.2263 1.64273 44.8526 2.49199 45.3455C6.56125 47.7084 20.2182 55.5516 22.945 57.1646C24.7789 58.2495 26.5694 58.2883 28.4168 57.219C35.267 53.2534 42.1263 49.3044 48.9796 45.343C49.8288 44.8504 50.4564 44.2236 50.8698 43.4749C51.2714 42.7464 51.471 41.9014 51.4714 40.9474C51.4714 40.9474 51.4714 25.0187 51.4688 17.052Z" fill="#5C8DBC"/>
<path d="M25.8144 28.9223L0.60175 43.477C1.0152 44.2263 1.64273 44.8526 2.49199 45.3455C6.56125 47.7084 20.2182 55.5516 22.945 57.1646C24.7789 58.2495 26.5694 58.2883 28.4168 57.219C35.267 53.2534 42.1263 49.3044 48.9796 45.343C49.8288 44.8504 50.4564 44.2236 50.8698 43.4749L25.8144 28.9223Z" fill="#1A4674"/>
<path d="M18.3467 33.2335C19.8138 35.8014 22.5719 37.5335 25.7357 37.5335C28.919 37.5335 31.6928 35.7794 33.1524 33.1841L25.8144 28.9223L18.3467 33.2335Z" fill="#1A4674"/>
<path d="M51.4688 17.052C51.4684 16.0768 51.2603 15.215 50.8396 14.4754L25.8144 28.9223L50.8698 43.4749C51.2714 42.7464 51.471 41.9014 51.4714 40.9474C51.4714 40.9474 51.4714 25.0187 51.4688 17.052Z" fill="#1B598E"/>
<path d="M50.0911 29.9625H48.1332V31.9259H46.1749V29.9625H44.2171V27.9997H46.1749V26.0367H48.1332V27.9997H50.0911V29.9625ZM42.9468 29.9625H40.9891V31.9259H39.0312V29.9625H37.0733V27.9997H39.0312V26.0367H40.9891V27.9997H42.9468V29.9625Z" fill="white"/>
<path d="M33.1524 33.1841C31.6928 35.7794 28.919 37.5335 25.7357 37.5335C22.5719 37.5335 19.8138 35.8014 18.3467 33.2335C17.6097 31.945 17.2227 30.4852 17.2242 28.9998C17.2242 24.287 21.0351 20.4664 25.7357 20.4664C28.8792 20.4664 31.6227 22.1768 33.0971 24.7185L40.5366 20.4234C37.5796 15.3057 32.0589 11.8627 25.7357 11.8627C16.2954 11.8627 8.64281 19.5353 8.64281 28.9998C8.64281 32.1048 9.46669 35.0166 10.9066 37.5282C13.8562 42.6729 19.3925 46.1372 25.7357 46.1372C32.0905 46.1372 37.6356 42.659 40.5809 37.4991L33.1524 33.1841Z" fill="white"/>
</svg>
