<svg width="51" height="58" viewBox="0 0 51 58" fill="none" xmlns="http://www.w3.org/2000/svg">
<path d="M4.63974 52.2021L0 0H51L46.3541 52.1938L25.469 58L4.63974 52.2021Z" fill="#1572B6"/>
<path d="M25.5 53.563L42.3774 48.8712L46.3479 4.26921H25.5V53.563Z" fill="#33A9DC"/>
<path d="M25.5 23.1814H33.949L34.5316 16.6253H25.5V10.2225H41.5098L39.789 29.5841H25.5V23.1814Z" fill="white"/>
<path d="M25.5392 39.8087L25.5103 39.817L18.3999 37.8906L17.9454 32.7845H11.5353L12.4298 42.8371L25.5083 46.4787L25.5392 46.4704V39.8087Z" fill="#EBEBEB"/>
<path d="M33.4057 29.3128L32.6373 37.8864L25.5165 39.8129V46.4746L38.6053 42.8371L39.8117 29.3128H33.4057Z" fill="white"/>
<path d="M25.5227 10.2225V16.6253H10.0996L9.52738 10.2225H25.5227ZM25.5 23.1814V29.5841H18.4784L17.9083 23.1814H25.5Z" fill="#EBEBEB"/>
</svg>
