<svg width="39" height="58" viewBox="0 0 39 58" fill="none" xmlns="http://www.w3.org/2000/svg">
<path d="M9.66667 58C15.0027 58 19.3333 53.6693 19.3333 48.3333V38.6667H9.66667C4.33067 38.6667 0 42.9973 0 48.3333C0 53.6693 4.33067 58 9.66667 58Z" fill="#0ACF83"/>
<path d="M0 29C0 23.664 4.33067 19.3333 9.66667 19.3333H19.3333V38.6667H9.66667C4.33067 38.6667 0 34.336 0 29Z" fill="#A259FF"/>
<path d="M0 9.66667C0 4.33067 4.33067 0 9.66667 0H19.3333V19.3333H9.66667C4.33067 19.3333 0 15.0027 0 9.66667Z" fill="#F24E1E"/>
<path d="M19.3333 0H29C34.336 0 38.6667 4.33067 38.6667 9.66667C38.6667 15.0027 34.336 19.3333 29 19.3333L19.3333 19.3333V0Z" fill="#FF7262"/>
<path d="M38.6667 29C38.6667 34.336 34.336 38.6667 29 38.6667C23.664 38.6667 19.3333 34.336 19.3333 29C19.3333 23.664 23.664 19.3333 29 19.3333C34.336 19.3333 38.6667 23.664 38.6667 29Z" fill="#1ABCFE"/>
</svg>
