<svg width="58" height="58" viewBox="0 0 58 58" fill="none" xmlns="http://www.w3.org/2000/svg">
<path d="M56.9062 26.4158L31.5828 1.09379C30.1253 -0.364596 27.76 -0.364596 26.3007 1.09379L21.0422 6.3523L27.7129 13.023C29.263 12.4992 31.0406 12.8506 32.2763 14.0862C33.5179 15.3298 33.8668 17.1226 33.3303 18.6778L39.759 25.1067C41.3144 24.5709 43.109 24.9175 44.3512 26.1618C46.0873 27.8973 46.0873 30.71 44.3512 32.4466C42.6146 34.1835 39.8018 34.1835 38.0643 32.4466C36.7584 31.1394 36.4358 29.2215 37.0969 27.6127L31.1016 21.6174L31.1009 37.3945C31.5355 37.6094 31.9325 37.8933 32.2763 38.2351C34.0125 39.9706 34.0125 42.7836 32.2763 44.5215C30.5397 46.2574 27.7256 46.2574 25.9915 44.5215C24.2553 42.7836 24.2553 39.9708 25.9915 38.2353C26.4075 37.819 26.902 37.4894 27.4462 37.2654V21.3412C26.9012 21.1187 26.4065 20.7889 25.9915 20.3713C24.6761 19.0577 24.3598 17.1276 25.0338 15.5125L18.458 8.93602L1.0943 26.2986C-0.364766 27.7584 -0.364766 30.1239 1.0943 31.5825L26.4181 56.905C27.876 58.3636 30.2409 58.3636 31.7006 56.905L56.9059 31.7001C58.3645 30.2411 58.3648 27.8742 56.9062 26.4158Z" fill="#DE4C36"/>
</svg>
