<svg width="51" height="58" viewBox="0 0 51 58" fill="none" xmlns="http://www.w3.org/2000/svg">
<path d="M4.64143 52.2021L0 0H51L46.3524 52.1938L25.469 58L4.64143 52.2021Z" fill="#E44F26"/>
<path d="M25.5 53.563L42.3761 48.8712L46.3462 4.26921H25.5V53.563Z" fill="#F1662A"/>
<path d="M25.5 23.6288H17.0516L16.4691 17.0727H25.5V10.6699H9.4915L11.2122 30.0316H25.5V23.6288ZM25.5 40.2561L25.4711 40.2644L18.3612 38.3401L17.9068 33.234H11.4972L12.3916 43.2846L25.4711 46.9261L25.5 46.9179V40.2561Z" fill="#EBEBEB"/>
<path d="M25.4773 23.6288V30.0316H33.339L32.5995 38.3359L25.4773 40.2624V46.9241L38.5671 43.2846L38.6621 42.2033L40.1617 25.3481L40.3187 23.6288H25.4773ZM25.4773 10.6699V17.0727H40.8992L41.4713 10.6699H25.4773Z" fill="white"/>
</svg>
