<svg width="43" height="58" viewBox="0 0 43 58" fill="none" xmlns="http://www.w3.org/2000/svg">
<path d="M13.7519 44.8547C13.7519 44.8547 11.5395 46.1436 15.3265 46.5797C19.9143 47.104 22.259 47.0289 27.3149 46.0702C27.3149 46.0702 28.6442 46.9051 30.5003 47.6284C19.1667 52.4946 4.84974 47.3465 13.7519 44.8547ZM12.3669 38.5046C12.3669 38.5046 9.88552 40.3448 13.6753 40.7374C18.5761 41.2439 22.4464 41.2853 29.1435 39.9934C29.1435 39.9934 30.0699 40.9342 31.5264 41.4487C17.8231 45.463 2.56025 41.7653 12.3669 38.5046Z" fill="#5382A1"/>
<path d="M24.0424 27.7328C26.8351 30.9537 23.3087 33.8522 23.3087 33.8522C23.3087 33.8522 30.3996 30.1851 27.143 25.5929C24.1015 21.3106 21.769 19.1826 34.396 11.8464C34.396 11.8464 14.5758 16.8055 24.0424 27.7328Z" fill="#E76F00"/>
<path d="M39.0322 49.5516C39.0322 49.5516 40.6694 50.9029 37.229 51.9485C30.6871 53.9339 10.0005 54.5334 4.25381 52.0276C2.18811 51.1274 6.06204 49.878 7.28054 49.6157C8.55135 49.3396 9.27769 49.3912 9.27769 49.3912C6.98032 47.7698 -5.57149 52.5747 2.90205 53.9505C26.0104 57.7048 45.0261 52.2601 39.0322 49.5516ZM14.8157 31.9252C14.8157 31.9252 4.29338 34.4291 11.0896 35.3381C13.9591 35.723 19.6795 35.636 25.0079 35.1886C29.3626 34.8208 33.7352 34.0383 33.7352 34.0383C33.7352 34.0383 32.1998 34.6971 31.0889 35.457C20.4035 38.2723 -0.238839 36.9626 5.70381 34.0828C10.7295 31.6491 14.8157 31.9252 14.8157 31.9252ZM33.6918 42.4951C44.5543 36.8405 39.5319 31.4066 36.0264 32.1388C35.1671 32.3178 34.7841 32.473 34.7841 32.473C34.7841 32.473 35.1031 31.9726 35.7123 31.7559C42.6471 29.3134 47.9806 38.9597 33.4736 42.7801C33.4736 42.7801 33.6417 42.6298 33.6918 42.4951Z" fill="#5382A1"/>
<path d="M27.143 0C27.143 0 33.1588 6.02872 21.4374 15.2987C12.0382 22.735 19.2941 26.9749 21.4335 31.8192C15.947 26.8602 11.9205 22.4947 14.6219 18.4318C18.5865 12.4674 29.5701 9.57593 27.143 0Z" fill="#E76F00"/>
<path d="M15.8831 57.8176C26.3096 58.4863 42.3204 57.4467 42.6996 52.5043C42.6996 52.5043 41.9707 54.3781 34.0827 55.866C25.1836 57.5436 14.2079 57.3478 7.69794 56.2725C7.69794 56.2725 9.03043 57.3775 15.8831 57.8176Z" fill="#5382A1"/>
</svg>
