<svg width="58" height="58" viewBox="0 0 58 58" fill="none" xmlns="http://www.w3.org/2000/svg">
<path d="M0 0H58V58H0V0Z" fill="#F5DE19"/>
<path d="M38.9615 45.3125C39.4557 46.3163 40.2235 47.16 41.1763 47.7464C42.1292 48.3328 43.2284 48.638 44.3472 48.6268C46.6051 48.6268 48.0489 47.4979 48.0489 45.9339C48.0489 44.0696 46.5657 43.4026 44.08 42.3151L42.717 41.731C38.7813 40.0552 36.1713 37.9569 36.1713 33.5199C36.1713 29.4329 39.2784 26.3196 44.1525 26.3196C45.7303 26.2056 47.3068 26.5588 48.6852 27.3349C50.0636 28.1111 51.183 29.2759 51.9038 30.6841L47.6429 33.408C47.3653 32.7098 46.8821 32.1124 46.2573 31.6951C45.6324 31.2778 44.8955 31.0603 44.1442 31.0714C43.8164 31.0386 43.4854 31.0744 43.1722 31.1766C42.8591 31.2788 42.5706 31.4451 42.3253 31.6649C42.0799 31.8848 41.8831 32.1533 41.7472 32.4534C41.6114 32.7535 41.5395 33.0786 41.5363 33.408C41.5363 35.0424 42.5492 35.7052 44.8879 36.7223L46.2509 37.3064C50.8826 39.2929 53.5009 41.3167 53.5009 45.8676C53.5009 50.7749 49.6459 53.4636 44.4694 53.4636C42.4525 53.5921 40.4414 53.1342 38.679 52.1451C36.9165 51.1559 35.478 49.6779 34.5369 47.8894L38.9615 45.3125ZM19.7076 45.7848C20.5631 47.3031 21.3419 48.5874 23.2145 48.5874C25.0042 48.5874 26.1352 47.8873 26.1352 45.1634V26.6303H31.5851V45.2359C31.5851 50.8784 28.2709 53.447 23.4465 53.447C21.7412 53.5402 20.0476 53.1152 18.5883 52.2279C17.1291 51.3406 15.9725 50.0325 15.2706 48.4756L19.7076 45.7848Z" fill="black"/>
</svg>
