<svg width="58" height="58" viewBox="0 0 58 58" fill="none" xmlns="http://www.w3.org/2000/svg">
<path d="M8.584 13.1209C8.584 10.6154 10.6154 8.584 13.1209 8.584H44.8791C47.3846 8.584 49.416 10.6154 49.416 13.1209V44.8791C49.416 47.3846 47.3846 49.416 44.8791 49.416H13.1209C10.6154 49.416 8.584 47.3846 8.584 44.8791V13.1209Z" fill="#03A9F4"/>
<path d="M21.2976 19.6697H17.4271V28.2421H21.2415C22.2991 28.2421 23.1169 27.8961 23.6969 27.2039C24.2769 26.5118 24.5649 25.5045 24.5649 24.1821C24.5649 22.8095 24.2691 21.7191 23.6775 20.9071C23.0859 20.0951 22.2913 19.6833 21.2976 19.6697Z" fill="#020F16"/>
<path d="M0 0V58H58V0H0ZM27.7723 30.5254C26.1754 32.0875 23.9598 32.8667 21.1275 32.8667H17.4271V42.5333H11.8765V15.0433H21.2415C23.9598 15.0433 26.129 15.8881 27.7453 17.574C29.3615 19.2599 30.1716 21.4503 30.1716 24.1435C30.1716 26.8366 29.3712 28.9633 27.7723 30.5254ZM45.7852 41.2496C44.4145 42.3574 42.6126 42.9103 40.3854 42.9103C38.8871 42.9103 37.5647 42.6184 36.4201 42.0326C35.2756 41.4468 34.3766 40.6309 33.7289 39.5869C33.0813 38.5429 32.7565 37.4158 32.7565 36.2075H37.8353C37.8624 37.1374 38.077 37.8373 38.4869 38.3032C38.8967 38.7691 39.5657 39.0011 40.4975 39.0011C41.9321 39.0011 42.6493 38.3535 42.6493 37.0562C42.6493 36.6038 42.4328 36.1843 41.9978 35.8015C41.5628 35.4187 40.6 34.9005 39.1017 34.2451C36.8996 33.3519 35.3858 32.4278 34.5603 31.4689C33.7347 30.5099 33.3229 29.3229 33.3229 27.8999C33.3229 26.1116 33.9687 24.6365 35.2582 23.4726C36.5477 22.3087 38.2587 21.7268 40.3835 21.7268C42.6223 21.7268 44.4164 22.3068 45.7639 23.4629C47.1115 24.6191 47.7843 26.1754 47.7843 28.1261H42.4405C42.4405 26.4654 41.7503 25.6341 40.3641 25.6341C39.7977 25.6341 39.3337 25.81 38.9663 26.1619C38.599 26.5137 38.4192 27.0067 38.4192 27.6351C38.4192 28.0875 38.6203 28.4877 39.0243 28.8337C39.4284 29.1798 40.3757 29.6747 41.876 30.3166C44.0549 31.1228 45.5919 32.0199 46.4928 33.0078C47.3937 33.9957 47.8423 35.2775 47.8423 36.8493C47.8423 38.6763 47.1559 40.1418 45.7852 41.2496Z" fill="#020F16"/>
</svg>
