<svg width="66" height="58" viewBox="0 0 66 58" fill="none" xmlns="http://www.w3.org/2000/svg">
<path d="M53.5439 18.7797C52.8509 18.542 52.1519 18.3217 51.4478 18.1191C51.5661 17.6358 51.675 17.1583 51.7716 16.6892C53.3585 8.98614 52.3211 2.78039 48.7777 0.737166C45.3804 -1.22161 39.8244 0.820859 34.2131 5.70431C33.6601 6.18645 33.1194 6.68249 32.5914 7.19196C32.238 6.85318 31.8783 6.52098 31.5126 6.19553C25.6317 0.974 19.737 -1.22669 16.1975 0.822386C12.8032 2.78726 11.7982 8.6211 13.2268 15.9215C13.3689 16.6445 13.5294 17.3638 13.7081 18.0787C12.8737 18.3157 12.0686 18.5681 11.298 18.8367C4.40317 21.2407 0 25.0079 0 28.9155C0 32.9513 4.727 36.9994 11.9083 39.454C12.4905 39.6521 13.0776 39.8358 13.6689 40.0047C13.4769 40.7746 13.3064 41.5498 13.1576 42.3293C11.7956 49.503 12.8592 55.1989 16.2443 57.1513C19.7406 59.1676 25.6088 57.0954 31.3225 52.1005C31.7859 51.6944 32.239 51.2768 32.6815 50.8482C33.2532 51.3998 33.8402 51.9354 34.4418 52.4543C39.9768 57.217 45.443 59.1401 48.8248 57.1824C52.3178 55.1602 53.4531 49.0413 51.9792 41.5966C51.8631 41.0134 51.7329 40.4331 51.5887 39.8561C52.0008 39.734 52.4053 39.6084 52.7996 39.4776C60.2653 37.0042 65.1228 33.0053 65.1228 28.9155C65.1228 24.9936 60.5774 21.201 53.5439 18.7797V18.7797ZM51.9248 36.8371C51.5686 36.9549 51.2033 37.0686 50.8309 37.1792C50.0067 34.57 48.8945 31.7957 47.5333 28.929C48.8322 26.1307 49.9016 23.3918 50.7027 20.7996C51.3689 20.9924 52.0153 21.1956 52.6386 21.4101C58.665 23.4849 62.3408 26.552 62.3408 28.9155C62.3408 31.4329 58.3709 34.701 51.9248 36.8371V36.8371ZM49.2501 42.137C49.9019 45.4287 49.9947 48.405 49.563 50.7319C49.1754 52.8227 48.3954 54.2165 47.4308 54.7749C45.3786 55.9628 40.9897 54.4187 36.2564 50.3455C35.6968 49.863 35.1508 49.3651 34.6189 48.8522C36.454 46.8454 38.2879 44.5124 40.0777 41.9212C43.226 41.6419 46.2003 41.185 48.8976 40.5615C49.0275 41.0838 49.1451 41.6091 49.2501 42.137V42.137ZM22.2018 54.5696C20.1967 55.2775 18.5997 55.2979 17.6343 54.7413C15.5801 53.5566 14.7261 48.983 15.891 42.8482C16.0294 42.1233 16.188 41.4023 16.3664 40.6862C19.0339 41.2764 21.9866 41.7007 25.1422 41.9566C26.9443 44.4921 28.8311 46.8225 30.7326 48.8632C30.3285 49.2542 29.9148 49.6352 29.492 50.0059C26.9652 52.2145 24.4333 53.7815 22.2018 54.5696V54.5696ZM12.8083 36.8216C9.63283 35.7361 7.01037 34.3255 5.21288 32.7862C3.59753 31.4031 2.78222 30.0297 2.78222 28.9155C2.78222 26.5441 6.31742 23.5195 12.2138 21.4638C12.9294 21.2145 13.6783 20.9792 14.4555 20.7584C15.2705 23.4091 16.3395 26.1806 17.6295 28.9832C16.3227 31.8272 15.2385 34.643 14.4155 37.325C13.8758 37.1704 13.3399 37.0025 12.8083 36.8216V36.8216ZM15.9571 15.387C14.7333 9.13241 15.546 4.41432 17.5916 3.23015C19.7701 1.9689 24.5877 3.76716 29.6655 8.27589C29.9966 8.57057 30.3223 8.87122 30.6426 9.17769C28.7504 11.2095 26.881 13.5226 25.0949 16.0431C22.0321 16.327 19.1003 16.7828 16.4048 17.3936C16.2388 16.7287 16.0895 16.0597 15.9571 15.3873V15.387ZM44.0482 22.3236C43.4115 21.2239 42.7513 20.138 42.0678 19.0667C44.1456 19.3295 46.1365 19.6782 48.0059 20.1046C47.4448 21.9036 46.7452 23.7843 45.9218 25.7125C45.3199 24.5705 44.6952 23.4407 44.0482 22.3236V22.3236ZM32.5927 11.166C33.8758 12.5562 35.161 14.1082 36.425 15.7922C33.8608 15.6711 31.2923 15.6706 28.7281 15.7907C29.9934 14.1222 31.2895 12.5722 32.5927 11.166ZM21.0637 22.3427C20.4247 23.4507 19.8118 24.5736 19.2252 25.7102C18.4153 23.7889 17.7221 21.8995 17.156 20.0751C19.0141 19.6594 20.9955 19.3196 23.0601 19.0616C22.369 20.1394 21.7034 21.2333 21.0637 22.3424V22.3427ZM23.1194 38.9673C20.9863 38.7292 18.9752 38.4069 17.1176 38.0024C17.6925 36.1454 18.401 34.2159 19.2285 32.2533C19.8174 33.3908 20.4329 34.5143 21.0746 35.6229C21.7345 36.7625 22.4178 37.8788 23.1194 38.9673ZM32.6695 46.8609C31.3508 45.4384 30.0356 43.8645 28.7512 42.1718C29.9982 42.2207 31.2694 42.2456 32.5614 42.2456C33.8888 42.2456 35.2009 42.2158 36.4924 42.1583C35.2243 43.8815 33.944 45.4577 32.6695 46.8609ZM45.948 32.1531C46.8185 34.1373 47.5521 36.0566 48.1347 37.8818C46.2466 38.3128 44.208 38.6598 42.0599 38.9174C42.7482 37.8263 43.4148 36.7215 44.0591 35.6038C44.7143 34.4677 45.344 33.3172 45.948 32.1531V32.1531ZM41.6493 34.2139C40.6629 35.9275 39.621 37.6086 38.5252 39.2545C36.5404 39.3951 34.5512 39.4649 32.5614 39.4639C30.5347 39.4639 28.5635 39.4008 26.6652 39.2777C25.5409 37.6356 24.4791 35.9515 23.4821 34.2291H23.4824C22.4901 32.5158 21.5632 30.7655 20.7037 28.9819C21.561 27.1979 22.4851 25.4467 23.474 23.7321L23.4737 23.7324C24.4623 22.0174 25.5156 20.3405 26.6314 18.7055C28.5681 18.5589 30.554 18.4826 32.5612 18.4826H32.5614C34.5777 18.4826 36.5662 18.5597 38.5023 18.7072C39.6069 20.3399 40.6535 22.0109 41.6402 23.7174C42.6324 25.4282 43.5687 27.1708 44.4476 28.9425C43.5777 30.7323 42.6444 32.4905 41.6493 34.2139V34.2139ZM47.3883 3.14722C49.5689 4.4049 50.417 9.4766 49.0469 16.1275C48.9594 16.5518 48.8612 16.984 48.7543 17.4223C46.0523 16.7986 43.1184 16.3348 40.0467 16.0466C38.2574 13.4984 36.4031 11.1817 34.5418 9.17617C35.0296 8.70594 35.5291 8.2479 36.0396 7.80248C40.8475 3.6186 45.341 1.96661 47.3883 3.14722V3.14722ZM32.5614 23.1002C35.773 23.1002 38.3767 25.7039 38.3767 28.9155C38.3767 32.1271 35.773 34.7308 32.5614 34.7308C29.3498 34.7308 26.7461 32.1271 26.7461 28.9155C26.7461 25.7039 29.3498 23.1002 32.5614 23.1002V23.1002Z" fill="#00D8FF"/>
</svg>
