<svg width="50" height="58" viewBox="0 0 50 58" fill="none" xmlns="http://www.w3.org/2000/svg">
<path d="M25.3643 34.6332C24.3419 35.0915 23.2217 35.6886 20.9792 36.8892C20.1289 37.3557 19.2405 37.8222 18.4136 38.2618C18.3562 38.2058 18.2967 38.1353 18.2393 38.0773C13.8032 33.4534 5.59846 30.1877 5.94706 23.9777C6.07672 21.7156 6.87381 15.7772 21.704 8.56568C33.9091 2.69778 43.6209 4.32337 45.298 7.92912C47.7084 13.0692 40.0924 22.6341 27.4877 24.0213C26.0927 24.2973 24.6519 24.264 23.2718 23.9237C21.8918 23.5835 20.6077 22.9451 19.5147 22.0556C18.8472 21.3486 18.7473 21.3071 18.5007 21.4481C18.0948 21.6554 18.3562 22.2961 18.5007 22.6631C18.9816 23.5123 19.632 24.2588 20.4137 24.8586C21.1953 25.4583 22.0923 25.8991 23.0516 26.1549C28.0119 27.2007 33.1836 26.701 37.8372 24.7262C45.4765 21.8421 51.4409 13.824 49.6937 7.10181C47.9401 0.286343 36.3429 -1.96129 25.3706 1.84144C18.4992 4.10026 12.1506 7.65607 6.68676 12.3062C0.6416 17.8216 -0.314911 22.6155 0.0761964 24.6226C1.48333 31.7491 11.5543 36.3874 15.593 39.8231C15.3804 39.9372 15.2018 40.0305 15.0424 40.1196C13.0274 41.0962 5.34552 45.013 3.43037 49.1558C1.2559 53.8501 3.77896 57.2153 5.44542 57.6673C7.95677 58.2541 10.5933 58.0612 12.9868 57.1156C15.3803 56.1699 17.4113 54.5186 18.7962 52.3924C19.9722 50.6293 20.6944 48.6152 20.9013 46.5215C21.1081 44.4277 20.7936 42.3161 19.9844 40.3664C20.4618 39.9949 20.971 39.664 21.5063 39.3773C22.5351 38.7843 23.515 38.1996 24.3844 37.7476C27.361 36.3875 30.6094 35.6872 33.8963 35.6969C40.796 36.489 42.1585 40.6878 41.897 42.4564C41.7747 43.0839 41.5161 43.6786 41.1384 44.2004C40.7608 44.7222 40.2729 45.1591 39.7077 45.4816C39.2294 45.7781 39.07 45.8776 39.1125 46.0891C39.1699 46.4001 39.4016 46.3856 39.8076 46.3296C40.8442 46.01 41.7575 45.392 42.4275 44.5568C43.0974 43.7216 43.4927 42.7082 43.5614 41.6498C43.7739 37.5029 39.7204 32.9537 32.5445 32.9952C30.3958 32.9988 28.2685 33.4123 26.2825 34.2123C25.9637 34.3409 25.654 34.4791 25.3536 34.627L25.3643 34.6332ZM15.1083 50.8871C12.8169 53.3193 9.62856 54.2378 8.25119 53.4603C6.76328 52.6309 7.35207 49.0334 10.1642 46.4603C11.8297 44.9964 13.6299 43.6853 15.5419 42.5435C15.8757 42.3362 16.3688 42.0625 16.9618 41.7141L17.1212 41.6291L17.4698 41.4218C17.9714 43.0621 18.017 44.803 17.6021 46.4661C17.1871 48.1293 16.3265 49.6551 15.1083 50.8871Z" fill="#CD6799"/>
</svg>
