<svg width="58" height="35" viewBox="0 0 58 35" fill="none" xmlns="http://www.w3.org/2000/svg">
<path d="M29 0C21.2667 0 16.4333 3.8475 14.5 11.5423C17.4 7.69478 20.7833 6.252 24.65 7.21393C26.856 7.76264 28.4329 9.35534 30.1784 11.118C33.0217 13.9898 36.3123 17.3134 43.5 17.3134C51.2333 17.3134 56.0667 13.4659 58 5.77114C55.1 9.61865 51.7167 11.0614 47.85 10.0995C45.644 9.55079 44.0671 7.95809 42.3216 6.19541C39.4783 3.32359 36.1877 0 29 0ZM14.5 17.3134C6.76674 17.3134 1.93326 21.1609 0 28.8557C2.9 25.0082 6.28326 23.5654 10.15 24.5274C12.356 25.0761 13.9329 26.6688 15.6784 28.4314C18.5217 31.3033 21.8123 34.6269 29 34.6269C36.7333 34.6269 41.5667 30.7794 43.5 23.0846C40.6 26.9321 37.2167 28.3749 33.35 27.4129C31.144 26.8642 29.5671 25.2715 27.8216 23.5088C24.9783 20.637 21.6877 17.3134 14.5 17.3134Z" fill="url(#paint0_linear_19_56)"/>
<defs>
<linearGradient id="paint0_linear_19_56" x1="-1.61124" y1="11.0806" x2="48.3562" y2="40.035" gradientUnits="userSpaceOnUse">
<stop stop-color="#2298BD"/>
<stop offset="1" stop-color="#0ED7B5"/>
</linearGradient>
</defs>
</svg>
