<svg
                    version="1.1"
                    id="Layer_1"
                    xmlns="http://www.w3.org/2000/svg"
                    xmlns:xlink="http://www.w3.org/1999/xlink"
                    x="0px"
                    y="0px"
                    viewBox="0 0 24 24"
                    style="enable-background: new 0 0 24 24"
                    xml:space="preserve"
                    fill="#fff"
                  >
                    <path
                      d="M16.3,23.5c-0.6,0-1-0.4-1-1v-3.9c0.1-0.8-0.2-1.4-0.7-1.9c-0.3-0.3-0.4-0.7-0.2-1c0.1-0.4,0.5-0.6,0.8-0.7
	c2.9-0.3,5.6-1.3,5.6-6c0-1.1-0.4-2.2-1.2-3.1c-0.3-0.3-0.3-0.7-0.2-1c0.3-0.8,0.3-1.6,0.1-2.4C19,2.6,18.1,3,16.8,3.8
	C16.6,4,16.3,4,16,4c-2.1-0.6-4.4-0.6-6.5,0C9.2,4,8.9,4,8.7,3.8C7.4,3,6.5,2.7,6,2.5C5.9,3.3,5.9,4.2,6.2,4.9C6.3,5.3,6.2,5.7,6,6
	C5.2,6.8,4.7,7.9,4.8,9.1c0,4.7,2.7,5.7,5.6,6c0.4,0,0.7,0.3,0.8,0.7c0.1,0.4,0,0.8-0.2,1c-0.5,0.5-0.7,1.1-0.7,1.8l0,0.9
	c0,0,0,0.1,0,0.1l0,2.9c0,0.6-0.4,1-1,1s-1-0.4-1-1v-1.7c-3,0.5-4.3-1.2-5.2-2.3c-0.4-0.5-0.7-0.9-1.1-1c-0.5-0.1-0.9-0.7-0.7-1.2
	c0.1-0.5,0.7-0.9,1.2-0.7c1,0.3,1.6,1,2.2,1.7c0.8,1.1,1.5,1.9,3.6,1.5v-0.1c0-0.6,0.1-1.3,0.3-1.8c-2.8-0.6-5.8-2.4-5.8-7.7
	c0-1.5,0.5-2.9,1.4-4C3.8,3.7,3.9,2.4,4.4,1.1c0.1-0.3,0.3-0.5,0.6-0.6c0.4-0.1,1.7-0.3,4.4,1.4c2.2-0.5,4.5-0.5,6.6,0
	c2.6-1.7,4-1.5,4.4-1.4c0.3,0.1,0.5,0.3,0.6,0.6c0.5,1.3,0.6,2.6,0.3,3.9c0.9,1.1,1.4,2.5,1.4,4c0,5.7-3.4,7.2-5.8,7.8
	c0.2,0.6,0.3,1.3,0.3,1.9l0,3.8C17.3,23.1,16.8,23.5,16.3,23.5z"
                    />
                  </svg>