<svg width="59" height="58" viewBox="0 0 59 58" fill="none" xmlns="http://www.w3.org/2000/svg">
<path d="M56.2793 6.14438L44.2661 0.360708C43.5876 0.0336016 42.8243 -0.0743437 42.0817 0.0518357C41.3392 0.178015 40.6544 0.532069 40.1221 1.06492L0.79686 36.917C0.319729 37.3499 0.0341213 37.9547 0.00286357 38.5982C-0.0283941 39.2417 0.197259 39.8713 0.630183 40.3485C0.682269 40.4047 0.734356 40.4589 0.790609 40.5089L4.00121 43.4257C4.42074 43.8075 4.96076 44.0304 5.52748 44.0555C6.09419 44.0806 6.65181 43.9064 7.10348 43.5632L54.4708 7.64447C54.8286 7.37297 55.2551 7.20674 55.7022 7.16447C56.1493 7.1222 56.5994 7.20559 57.0017 7.40523C57.404 7.60487 57.7426 7.91284 57.9794 8.29449C58.2161 8.67613 58.3417 9.11629 58.3419 9.56541V9.42582C58.3418 8.74016 58.1482 8.06843 57.7833 7.48792C57.4185 6.90742 56.8971 6.44171 56.2793 6.14438Z" fill="#0065A9"/>
<path d="M56.2793 51.8554L44.2661 57.6411C43.5874 57.9673 42.8243 58.0748 42.082 57.9486C41.3397 57.8225 40.6548 57.469 40.1221 56.9369L0.79686 21.0828C0.319729 20.6498 0.0341213 20.0451 0.00286357 19.4015C-0.0283941 18.758 0.197259 18.1284 0.630183 17.6513C0.682269 17.595 0.734356 17.5409 0.790609 17.4909L4.00121 14.574C4.42117 14.1906 4.96242 13.9668 5.53054 13.9417C6.09865 13.9165 6.65755 14.0917 7.10973 14.4365L54.4708 50.3553C54.8286 50.6268 55.2551 50.793 55.7022 50.8353C56.1493 50.8775 56.5994 50.7942 57.0017 50.5945C57.404 50.3949 57.7426 50.0869 57.9794 49.7053C58.2161 49.3236 58.3417 48.8835 58.3419 48.4343V48.5844C58.3396 49.2682 58.145 49.9376 57.7803 50.516C57.4155 51.0945 56.8954 51.5586 56.2793 51.8554Z" fill="#007ACC"/>
<path d="M44.2661 57.6411C43.5874 57.9673 42.8243 58.0748 42.082 57.9486C41.3397 57.8225 40.6548 57.469 40.1221 56.9369C40.4213 57.2322 40.801 57.4326 41.2136 57.5131C41.6262 57.5935 42.0533 57.5504 42.4415 57.3891C42.8297 57.2278 43.1617 56.9555 43.3958 56.6064C43.63 56.2573 43.7558 55.8468 43.7577 55.4264V2.57334C43.758 2.151 43.633 1.73806 43.3985 1.38682C43.164 1.03559 42.8305 0.761867 42.4402 0.600332C42.05 0.438797 41.6206 0.396716 41.2065 0.479422C40.7923 0.562127 40.412 0.765896 40.1137 1.06492C40.6461 0.532262 41.3308 0.178186 42.0732 0.0516558C42.8156 -0.0748743 43.579 0.0323937 44.2577 0.358625L56.2688 6.13396C56.8886 6.42981 57.4121 6.89488 57.7789 7.4755C58.1457 8.05612 58.3409 8.72862 58.3419 9.4154V48.5844C58.342 49.2706 58.1483 49.9429 57.783 50.5238C57.4177 51.1048 56.8957 51.5707 56.2772 51.8679L44.2661 57.6411Z" fill="#1F9CF0"/>
</svg>
